<svg width="846" height="174" viewBox="0 0 846 174" fill="none" xmlns="http://www.w3.org/2000/svg">
<path fill-rule="evenodd" clip-rule="evenodd" d="M48 26.1048C39.7157 26.1048 33 32.8206 33 41.1048V145.41C33 153.694 39.7157 160.41 48 160.41H129.706C137.99 160.41 144.706 153.694 144.706 145.41V134.896C144.706 129.374 140.228 124.896 134.706 124.896H79.8047C74.2819 124.896 69.8047 120.419 69.8047 114.896V70.9725C69.8047 65.4496 74.2819 60.9725 79.8047 60.9725H134.706C140.228 60.9725 144.706 56.4953 144.706 50.9724V41.1048C144.706 32.8206 137.99 26.1048 129.706 26.1048H48Z" fill="#1F75FE"/>
<rect x="89.1756" y="68.0751" width="49.073" height="50.3644" rx="10" fill="#FCC201"/>
<path fill-rule="evenodd" clip-rule="evenodd" d="M58.3312 29.3333C50.0469 29.3333 43.3312 36.049 43.3312 44.3333V148.638C43.3312 156.923 50.0469 163.638 58.3312 163.638H140.037C148.321 163.638 155.037 156.923 155.037 148.638V138.125C155.037 132.602 150.56 128.125 145.037 128.125H90.1359C84.613 128.125 80.1359 123.648 80.1359 118.125V74.2009C80.1359 68.6781 84.613 64.2009 90.1359 64.2009H145.037C150.56 64.2009 155.037 59.7238 155.037 54.2009V44.3333C155.037 36.049 148.321 29.3333 140.037 29.3333H58.3312Z" fill="#00489D"/>
<rect x="99.5068" y="71.3036" width="49.073" height="50.3644" rx="10" fill="#FF9900"/>
<path d="M223.138 105.609V127.362C223.138 131.513 223.187 135.15 223.285 138.275C223.382 141.352 223.529 144.013 223.724 146.259C223.919 148.505 224.139 150.385 224.383 151.898C224.676 153.412 224.969 154.682 225.262 155.707V156H207.684V155.707C207.977 154.682 208.245 153.412 208.49 151.898C208.783 150.385 209.002 148.505 209.149 146.259C209.344 144.013 209.491 141.352 209.588 138.275C209.735 135.15 209.808 131.513 209.808 127.362V107.074L177.069 62.543C175.946 61.0293 174.823 59.6377 173.7 58.3682C172.625 57.0986 171.6 56 170.623 55.0723C169.647 54.0957 168.768 53.29 167.987 52.6553C167.205 52.0205 166.595 51.5566 166.156 51.2637V50.9707H188.348C188.348 52.0937 188.812 53.9492 189.74 56.5371C190.716 59.0762 192.45 62.0791 194.94 65.5459L218.963 98.4316L242.474 64.0811C243.304 62.8604 244.134 61.6152 244.964 60.3457C245.794 59.0762 246.551 57.8555 247.235 56.6836C247.918 55.5117 248.455 54.4375 248.846 53.4609C249.286 52.4844 249.505 51.6543 249.505 50.9707H263.787V51.2637C262.713 52.1914 261.273 53.583 259.466 55.4385C257.66 57.2451 255.706 59.6621 253.607 62.6895L223.138 105.609ZM275.653 79.6816C275.653 75.5312 275.604 71.918 275.506 68.8418C275.409 65.7168 275.262 63.0313 275.067 60.7852C274.871 58.4902 274.627 56.5859 274.334 55.0723C274.09 53.5586 273.822 52.2891 273.529 51.2637V50.9707C274.505 51.0195 275.531 51.0439 276.605 51.0439C277.533 51.0928 278.558 51.1172 279.681 51.1172C280.853 51.1172 282.049 51.1172 283.27 51.1172C285.028 51.1172 287.396 50.9463 290.374 50.6045C293.402 50.2627 297.284 50.0918 302.02 50.0918C306.414 50.0918 310.467 50.6777 314.178 51.8496C317.889 52.9727 321.087 54.6084 323.773 56.7568C326.507 58.9053 328.631 61.5664 330.145 64.7402C331.707 67.8652 332.489 71.4297 332.489 75.4336C332.489 78.8027 332.025 81.8301 331.097 84.5156C330.169 87.1523 328.851 89.4717 327.142 91.4736C325.482 93.4268 323.455 95.0869 321.063 96.4541C318.719 97.7725 316.131 98.8223 313.299 99.6035C317.45 100.238 321.234 101.312 324.652 102.826C328.07 104.291 330.999 106.146 333.441 108.393C335.931 110.639 337.835 113.275 339.154 116.303C340.521 119.281 341.204 122.602 341.204 126.264C341.204 136.566 337.811 144.306 331.024 149.481C324.237 154.608 314.08 157.172 300.555 157.172C299.09 157.172 297.381 157.099 295.428 156.952C293.475 156.854 291.473 156.732 289.422 156.586C287.42 156.439 285.443 156.293 283.49 156.146C281.536 156.049 279.828 156 278.363 156H273.529V155.707C273.822 154.682 274.09 153.412 274.334 151.898C274.627 150.385 274.871 148.505 275.067 146.259C275.262 144.013 275.409 141.352 275.506 138.275C275.604 135.15 275.653 131.513 275.653 127.362V79.6816ZM302.533 104.071C299.212 104.071 296.429 104.193 294.183 104.438C291.937 104.682 290.203 104.926 288.983 105.17V127.362C288.983 133.075 289.08 137.787 289.276 141.498C289.471 145.209 289.74 148.236 290.081 150.58C291.937 150.824 293.792 151.044 295.648 151.239C297.503 151.435 298.993 151.532 300.116 151.532C309.246 151.532 315.911 149.506 320.111 145.453C324.359 141.352 326.483 135.077 326.483 126.63C326.483 123.31 325.97 120.282 324.945 117.548C323.968 114.765 322.479 112.372 320.477 110.37C318.524 108.368 316.034 106.83 313.006 105.756C310.028 104.633 306.536 104.071 302.533 104.071ZM288.983 98.5781C290.35 98.7246 291.571 98.8223 292.645 98.8711C293.719 98.8711 294.867 98.8711 296.087 98.8711C299.408 98.8711 302.435 98.4072 305.169 97.4795C307.904 96.5029 310.223 95.0625 312.127 93.1582C314.08 91.2539 315.594 88.8857 316.668 86.0537C317.743 83.1729 318.28 79.8281 318.28 76.0195C318.28 72.8457 317.889 69.9648 317.108 67.377C316.327 64.7891 315.155 62.5918 313.592 60.7852C312.078 58.9297 310.199 57.5137 307.953 56.5371C305.706 55.5605 303.143 55.0723 300.262 55.0723C298.407 55.0723 296.771 55.1455 295.355 55.292C293.988 55.4385 292.816 55.6094 291.839 55.8047C290.716 56 289.764 56.2441 288.983 56.5371V98.5781ZM357.757 50.9707C363.861 50.9707 369.915 50.9463 375.921 50.8975C381.976 50.8486 387.518 50.7998 392.547 50.751C397.577 50.6533 401.873 50.5312 405.438 50.3848C409.002 50.2383 411.419 50.043 412.689 49.7988L409.1 59.54C407.489 59.1006 405.609 58.71 403.46 58.3682C401.605 58.0752 399.334 57.8066 396.649 57.5625C394.012 57.2695 390.96 57.123 387.494 57.123C386.322 57.123 384.906 57.1719 383.245 57.2695C381.634 57.3184 380.072 57.3916 378.558 57.4893C376.8 57.5869 375.018 57.6846 373.211 57.7822V97.7725C378.241 97.7236 382.782 97.5771 386.834 97.333C390.887 97.0889 394.329 96.8447 397.161 96.6006C400.482 96.3076 403.411 95.9658 405.951 95.5752L403.68 106.195C400.311 105.756 396.869 105.341 393.353 104.95C390.326 104.608 387.03 104.315 383.465 104.071C379.901 103.778 376.483 103.632 373.211 103.632V149.555C378.973 149.555 384.271 149.311 389.105 148.822C393.939 148.334 398.162 147.772 401.776 147.138C405.975 146.454 409.808 145.648 413.275 144.721L411.151 156.586C410.565 156.537 409.686 156.488 408.514 156.439C407.342 156.391 406.024 156.342 404.559 156.293C403.143 156.244 401.629 156.195 400.018 156.146C398.455 156.146 396.966 156.122 395.55 156.073C394.134 156.073 392.865 156.049 391.742 156C390.667 156 389.886 156 389.398 156H357.757V155.707C358.05 154.682 358.319 153.412 358.563 151.898C358.856 150.385 359.1 148.505 359.295 146.259C359.491 144.013 359.637 141.352 359.735 138.275C359.832 135.15 359.881 131.513 359.881 127.362V79.6816C359.881 75.5312 359.832 71.918 359.735 68.8418C359.637 65.7168 359.491 63.0313 359.295 60.7852C359.1 58.4902 358.856 56.5859 358.563 55.0723C358.319 53.5586 358.05 52.2891 357.757 51.2637V50.9707ZM446.746 127.362C446.746 131.513 446.795 135.15 446.893 138.275C447.039 141.352 447.186 144.013 447.332 146.259C447.528 148.505 447.747 150.385 447.992 151.898C448.285 153.412 448.578 154.682 448.87 155.707V156H431.292V155.707C431.585 154.682 431.854 153.412 432.098 151.898C432.391 150.385 432.611 148.505 432.757 146.259C432.953 144.013 433.099 141.352 433.197 138.275C433.343 135.199 433.416 131.562 433.416 127.362V79.6816C433.416 75.5312 433.343 71.918 433.197 68.8418C433.099 65.7168 432.953 63.0313 432.757 60.7852C432.611 58.5391 432.391 56.6592 432.098 55.1455C431.854 53.583 431.585 52.2891 431.292 51.2637V50.9707L434.369 51.2637C435.296 51.3613 436.322 51.4346 437.445 51.4834C438.617 51.4834 439.813 51.4834 441.034 51.4834C442.938 51.4834 445.501 51.2637 448.724 50.8242C451.995 50.3359 456.146 50.0918 461.175 50.0918C465.863 50.0918 470.184 50.7266 474.139 51.9961C478.143 53.2656 481.61 55.1211 484.539 57.5625C487.469 60.0039 489.74 63.0068 491.351 66.5713C493.011 70.0869 493.841 74.0908 493.841 78.583C493.841 82.0986 493.377 85.3701 492.45 88.3975C491.571 91.376 490.301 94.0859 488.641 96.5273C487.03 98.9688 485.077 101.142 482.782 103.046C480.487 104.901 477.923 106.464 475.091 107.733L500.799 143.842C502.069 145.648 503.241 147.211 504.315 148.529C505.438 149.848 506.488 150.995 507.464 151.972C508.49 152.899 509.466 153.681 510.394 154.315C511.322 154.901 512.274 155.365 513.25 155.707V156H492.083C491.937 155.072 491.449 153.852 490.619 152.338C489.837 150.775 488.91 149.237 487.835 147.724L461.908 111.176C460.785 111.273 459.661 111.371 458.538 111.469C457.415 111.518 456.268 111.542 455.096 111.542C453.729 111.542 452.337 111.493 450.921 111.396C449.554 111.298 448.162 111.127 446.746 110.883V127.362ZM446.746 105.17C448.065 105.463 449.408 105.683 450.775 105.829C452.142 105.927 453.46 105.976 454.73 105.976C458.392 105.976 461.737 105.438 464.764 104.364C467.791 103.241 470.355 101.557 472.454 99.3105C474.603 97.0645 476.263 94.2812 477.435 90.9609C478.607 87.5918 479.193 83.6611 479.193 79.1689C479.193 75.5068 478.778 72.1865 477.948 69.208C477.118 66.2295 475.872 63.7148 474.212 61.6641C472.601 59.5645 470.55 57.9531 468.06 56.8301C465.57 55.6582 462.664 55.0723 459.344 55.0723C455.975 55.0723 453.289 55.2432 451.287 55.585C449.286 55.9268 447.772 56.293 446.746 56.6836V105.17ZM520.575 155.707C520.868 154.682 521.136 153.412 521.38 151.898C521.624 150.385 521.844 148.505 522.039 146.259C522.235 144.013 522.381 141.352 522.479 138.275C522.577 135.15 522.625 131.513 522.625 127.362V79.6816C522.625 75.5312 522.577 71.918 522.479 68.8418C522.381 65.7168 522.235 63.0313 522.039 60.7852C521.844 58.4902 521.624 56.5859 521.38 55.0723C521.136 53.5586 520.868 52.2891 520.575 51.2637V50.9707H538.079V51.2637C537.786 52.2891 537.494 53.5586 537.201 55.0723C536.956 56.5859 536.737 58.4902 536.541 60.7852C536.395 63.0313 536.248 65.7168 536.102 68.8418C536.004 71.918 535.955 75.5312 535.955 79.6816V127.362C535.955 131.513 536.004 135.15 536.102 138.275C536.248 141.352 536.395 144.013 536.541 146.259C536.737 148.505 536.956 150.385 537.201 151.898C537.494 153.412 537.786 154.682 538.079 155.707V156H520.575V155.707ZM634.906 79.6816C634.906 75.5312 634.857 71.918 634.759 68.8418C634.661 65.7168 634.515 63.0313 634.32 60.7852C634.124 58.4902 633.905 56.5859 633.661 55.0723C633.416 53.5586 633.148 52.2891 632.855 51.2637V50.9707H645.892V51.2637C645.599 52.2891 645.306 53.5586 645.013 55.0723C644.769 56.5859 644.549 58.4902 644.354 60.7852C644.207 63.0313 644.061 65.7168 643.914 68.8418C643.817 71.918 643.768 75.5312 643.768 79.6816V119.232C643.768 126.215 642.767 132.172 640.765 137.104C638.763 142.035 635.98 146.088 632.415 149.262C628.851 152.387 624.578 154.657 619.598 156.073C614.618 157.538 609.173 158.271 603.265 158.271C597.357 158.271 591.839 157.587 586.712 156.22C581.634 154.853 577.191 152.655 573.382 149.628C569.622 146.552 566.668 142.597 564.52 137.763C562.371 132.88 561.297 126.947 561.297 119.965V79.6816C561.297 75.5312 561.248 71.918 561.151 68.8418C561.053 65.7168 560.907 63.0313 560.711 60.7852C560.516 58.4902 560.272 56.5859 559.979 55.0723C559.735 53.5586 559.466 52.2891 559.173 51.2637V50.9707H576.751V51.2637C576.458 52.2891 576.165 53.5586 575.872 55.0723C575.628 56.5859 575.409 58.4902 575.213 60.7852C575.018 63.0313 574.871 65.7168 574.774 68.8418C574.676 71.918 574.627 75.5312 574.627 79.6816V120.771C574.627 126.581 575.482 131.391 577.191 135.199C578.949 138.959 581.244 141.962 584.076 144.208C586.908 146.405 590.13 147.943 593.744 148.822C597.357 149.701 601.043 150.141 604.803 150.141C608.563 150.141 612.249 149.701 615.863 148.822C619.476 147.943 622.674 146.405 625.457 144.208C628.289 141.962 630.56 138.959 632.269 135.199C634.027 131.391 634.906 126.581 634.906 120.771V79.6816ZM661.053 155.707C661.59 154.926 662.201 153.778 662.884 152.265C663.568 150.702 664.105 148.749 664.495 146.405C665.033 142.987 665.619 139.154 666.253 134.906C666.937 130.609 667.62 126.117 668.304 121.43C669.036 116.742 669.745 111.957 670.428 107.074C671.161 102.143 671.844 97.3086 672.479 92.5723C673.162 87.7871 673.797 83.1973 674.383 78.8027C675.018 74.3594 675.579 70.3066 676.068 66.6445C676.556 62.9824 676.947 59.8086 677.24 57.123C677.581 54.3887 677.826 52.3379 677.972 50.9707H687.274L733.343 137.104L779.046 50.9707H786.004L798.016 137.982C798.358 140.717 798.724 143.061 799.115 145.014C799.505 146.967 799.896 148.651 800.286 150.067C800.677 151.435 801.043 152.582 801.385 153.51C801.776 154.389 802.142 155.121 802.484 155.707V156H784.027V155.707C784.271 155.17 784.491 154.291 784.686 153.07C784.93 151.85 785.052 150.385 785.052 148.676C785.052 148.041 785.028 147.406 784.979 146.771C784.93 146.088 784.857 145.355 784.759 144.574L775.457 74.4082L732.245 155.707L727.191 155.121L683.685 73.6758C681.976 85.248 680.487 95.9414 679.217 105.756C678.68 109.955 678.143 114.154 677.606 118.354C677.069 122.504 676.58 126.386 676.141 129.999C675.75 133.612 675.433 136.811 675.189 139.594C674.945 142.328 674.823 144.354 674.823 145.673C674.823 147.333 674.871 148.798 674.969 150.067C675.067 151.337 675.164 152.411 675.262 153.29C675.409 154.315 675.555 155.219 675.702 156H661.053V155.707Z" fill="#00489D"/>
</svg>
